<?xml version="1.0" standalone="no"?>
<!DOCTYPE svg PUBLIC "-//W3C//DTD SVG 20010904//EN"
 "http://www.w3.org/TR/2001/REC-SVG-20010904/DTD/svg10.dtd">
<svg version="1.0" xmlns="http://www.w3.org/2000/svg"
 width="1200.000000pt" height="1200.000000pt" viewBox="0 0 1200.000000 1200.000000"
 preserveAspectRatio="xMidYMid meet">

<g transform="translate(0.000000,1200.000000) scale(0.100000,-0.100000)"
fill="#000000" stroke="none">
<path d="M4385 8978 c-5 -22 -64 -311 -296 -1461 -61 -302 -108 -551 -105
-555 4 -3 122 -8 264 -11 l258 -6 -47 -260 c-26 -143 -55 -298 -63 -345 -9
-47 -32 -173 -52 -280 -55 -309 -104 -576 -125 -692 -10 -60 -28 -157 -39
-218 -11 -60 -29 -158 -39 -217 -11 -60 -58 -319 -105 -578 -76 -419 -106
-577 -176 -940 -36 -192 -58 -320 -59 -355 -1 -34 0 -33 23 20 13 30 44 109
69 175 78 203 207 534 323 830 36 94 74 193 85 220 10 28 36 95 57 150 21 55
78 201 126 325 48 124 98 252 111 286 83 211 139 356 155 399 10 28 62 160
115 295 53 135 120 308 150 385 30 77 71 185 93 240 60 155 221 570 257 665
18 47 58 149 89 227 30 78 58 153 62 168 l6 25 -217 0 -217 0 6 28 c3 15 15
86 26 157 34 215 51 319 56 343 l5 24 787 -7 c632 -5 799 -9 846 -21 170 -41
279 -134 342 -289 25 -64 28 -81 28 -195 0 -101 -4 -141 -22 -205 -118 -412
-494 -771 -937 -896 -66 -18 -115 -23 -279 -28 l-199 -6 -74 -190 c-41 -104
-98 -253 -128 -330 -29 -77 -81 -210 -114 -294 -34 -85 -61 -159 -61 -164 0
-6 123 -7 313 -4 259 4 332 9 432 27 515 92 986 348 1390 754 358 359 571 738
667 1184 20 93 23 135 23 327 0 289 -24 401 -131 620 -172 353 -471 570 -924
672 -68 15 -205 17 -1412 20 l-1337 4 -6 -23z"/>
</g>
</svg>
